<svg width="20" height="20" viewBox="0 0 20 20" fill="none" xmlns="http://www.w3.org/2000/svg">
<path d="M18.9955 9.71147L19.995 9.67999C19.9852 9.37008 19.8322 9.08223 19.5809 8.90072C19.3295 8.71921 19.0081 8.66458 18.7109 8.75282L18.9955 9.71147ZM10.2885 1.00454L11.2472 1.28913C11.3354 0.991892 11.2808 0.67053 11.0993 0.419145C10.9178 0.167761 10.6299 0.0147933 10.32 0.0050329L10.2885 1.00454ZM18.7109 8.75282C18.1699 8.91342 17.5959 9 17 9V11C17.7907 11 18.5563 10.885 19.2801 10.6701L18.7109 8.75282ZM17 9C13.6863 9 11 6.31371 11 3H9C9 7.41828 12.5817 11 17 11V9ZM11 3C11 2.40407 11.0866 1.83011 11.2472 1.28913L9.32988 0.719941C9.11501 1.44371 9 2.20931 9 3H11ZM10 2C10.086 2 10.1717 2.00135 10.2571 2.00404L10.32 0.0050329C10.2137 0.00168526 10.107 0 10 0V2ZM2 10C2 5.58172 5.58172 2 10 2V0C4.47715 0 0 4.47715 0 10H2ZM10 18C5.58172 18 2 14.4183 2 10H0C0 15.5228 4.47715 20 10 20V18ZM18 10C18 14.4183 14.4183 18 10 18V20C15.5228 20 20 15.5228 20 10H18ZM17.996 9.74295C17.9986 9.82827 18 9.91396 18 10H20C20 9.89296 19.9983 9.78628 19.995 9.67999L17.996 9.74295Z" fill="#333333"/>
</svg>
