<?xml version="1.0" encoding="UTF-8"?>
<svg id="Ebene_1" xmlns="http://www.w3.org/2000/svg" xmlns:xlink="http://www.w3.org/1999/xlink" version="1.1" viewBox="0 0 26.66 26.27">
  <!-- Generator: Adobe Illustrator 29.8.0, SVG Export Plug-In . SVG Version: 2.1.1 Build 160)  -->
  <defs>
    <style>
      .st0 {
        fill: none;
      }

      .st1 {
        fill: #333;
      }

      .st2 {
        clip-path: url(#clippath);
      }
    </style>
    <clipPath id="clippath">
      <rect class="st0" x="-20.94" y=".14" width="68.55" height="41.53"/>
    </clipPath>
  </defs>
  <g class="st2">
    <g>
      <path class="st1" d="M23.24,21.1l1.28,2.95c.24.54.89.8,1.45.58.57-.22.84-.85.6-1.39l-1.28-2.95-2.06.81Z"/>
      <path class="st1" d="M24.1,23.07l2.06-.81-2.06.81Z"/>
      <path class="st1" d="M20.54,14.88l2.91,1.15-2.91-1.15Z"/>
      <path class="st1" d="M22.13,8.9c0,1.57-1.33,2.84-2.97,2.84s-2.97-1.27-2.97-2.84,1.33-2.84,2.97-2.84,2.97,1.27,2.97,2.84Z"/>
      <path class="st1" d="M20.64,8.9c0,.78-.66,1.42-1.48,1.42s-1.49-.64-1.49-1.42.67-1.42,1.49-1.42c.82,0,1.48.64,1.48,1.42Z"/>
      <path class="st1" d="M17.08,10.92l-4.06,9.37-1.02,4.2.69.27,2.39-3.66.57-1.31c-.44-1.02.06-2.2,1.14-2.62l2.35-5.44c-.8,0-1.53-.32-2.06-.81Z"/>
      <path class="st1" d="M21.24,10.92c-.53.5-1.26.81-2.06.81l3.49,8.06,2.06-.81-3.49-8.06Z"/>
      <path class="st1" d="M20.27,4.64V1.45c0-.59-.5-1.06-1.11-1.06s-1.11.48-1.11,1.06v3.19h2.23Z"/>
      <path class="st1" d="M19.16,5.52c.19,0,.38.01.56.03v-.91h-1.11v.91c.18-.02.37-.03.56-.03Z"/>
      <path class="st1" d="M3.7,25.94H0V.38h3.7c.82,0,1.48.64,1.48,1.42v22.72h0c0,.78-.66,1.42-1.48,1.42Z"/>
      <path class="st1" d="M3.52,2.51c.31,0,.56-.24.56-.53s-.25-.53-.56-.53-.56.24-.56.53.25.53.56.53Z"/>
      <path class="st1" d="M7.78,15.47c0,.29.25.53.56.53s.56-.24.56-.53c0,.29.25.53.56.53s.56-.24.56-.53c0,.29-.25.53-.56.53s-.56-.24-.56-.53c0,.29-.25.53-.56.53s-.56-.24-.56-.53Z"/>
      <path class="st1" d="M8.52.38c-.41,0-.74.32-.74.71h0s0,14.91,0,14.91l1.11,4.26,1.11-4.26V1.09h0c0-.39-.33-.71-.74-.71h-.74Z"/>
    </g>
  </g>
</svg>