<?xml version="1.0" encoding="UTF-8"?>
<svg id="Ebene_1" xmlns="http://www.w3.org/2000/svg" version="1.1" viewBox="0 0 26.66 26.27">
  <!-- Generator: Adobe Illustrator 30.0.0, SVG Export Plug-In . SVG Version: 2.1.1 Build 123)  -->
  <path d="M20.54,14.88l2.91,1.15s-2.91-1.15-2.91-1.15Z" fill="#333"/>
  <path d="M20.64,8.9c0,.78-.66,1.42-1.48,1.42s-1.49-.64-1.49-1.42.67-1.42,1.49-1.42,1.48.64,1.48,1.42Z" fill="#333"/>
  <path d="M3.52,2.51c.31,0,.56-.24.56-.53s-.25-.53-.56-.53-.56.24-.56.53.25.53.56.53Z" fill="#333"/>
  <path d="M7.78,15.47c0,.29.25.53.56.53s.56-.24.56-.53c0,.29.25.53.56.53s.56-.24.56-.53c0,.29-.25.53-.56.53s-.56-.24-.56-.53c0,.29-.25.53-.56.53s-.56-.24-.56-.53Z" fill="#333"/>
  <path d="M26.57,23.24l-1.28-2.95-2.06.81h.01l1.28,2.95c.24.54.89.8,1.45.58.57-.22.84-.85.6-1.39Z" fill="#333"/>
  <path d="M24.73,18.98s-3.49-8.05-3.49-8.06c.55-.51.89-1.23.89-2.02,0-1.57-1.33-2.84-2.97-2.84s-2.97,1.27-2.97,2.84c0,.79.34,1.51.89,2.02l-4.06,9.37-1.02,4.2.69.27,2.39-3.66.57-1.31c-.44-1.02.06-2.2,1.14-2.62l2.35-5.43h.04l3.49,8.05s2.06-.81,2.06-.81Z" fill="#333"/>
  <path d="M18.61,5.55c.18-.02.37-.03.55-.03.19,0,.38,0,.55.03v-.91h.55V1.45c0-.59-.5-1.06-1.11-1.06s-1.11.48-1.11,1.06v3.19h.56v.91h.01Z" fill="#333"/>
  <path d="M3.7.38H0v25.56h3.7c.82,0,1.48-.64,1.48-1.42V1.8c0-.78-.66-1.42-1.48-1.42Z" fill="#333"/>
  <path d="M9.26.38h-.74c-.41,0-.74.32-.74.71v14.91l1.11,4.26,1.11-4.26V1.09c0-.39-.33-.71-.74-.71Z" fill="#333"/>
</svg>